<svg width="43" height="49" viewBox="0 0 43 49" fill="none" xmlns="http://www.w3.org/2000/svg">
<path d="M37.2 0.198242H5.04C2.328 0.198242 0.119995 2.40624 0.119995 5.14224V37.5902C0.119995 40.3262 2.328 42.5342 5.04 42.5342H32.256L30.984 38.0942L34.056 40.9502L36.96 43.6382L42.12 48.1982V5.14224C42.12 2.40624 39.912 0.198242 37.2 0.198242ZM27.936 31.5422C27.936 31.5422 27.072 30.5102 26.352 29.5982C29.496 28.7102 30.696 26.7422 30.696 26.7422C29.712 27.3902 28.776 27.8462 27.936 28.1582C26.736 28.6622 25.584 28.9982 24.456 29.1902C22.152 29.6222 20.04 29.5022 18.24 29.1662C16.872 28.9022 15.696 28.5182 14.712 28.1342C14.16 27.9182 13.56 27.6542 12.96 27.3182C12.888 27.2702 12.816 27.2462 12.744 27.1982C12.696 27.1742 12.672 27.1502 12.648 27.1262C12.216 26.8862 11.976 26.7182 11.976 26.7182C11.976 26.7182 13.128 28.6382 16.176 29.5502C15.456 30.4622 14.568 31.5422 14.568 31.5422C9.26399 31.3742 7.24799 27.8942 7.24799 27.8942C7.24799 20.1662 10.704 13.9022 10.704 13.9022C14.16 11.3102 17.448 11.3822 17.448 11.3822L17.688 11.6702C13.368 12.9182 11.376 14.8142 11.376 14.8142C11.376 14.8142 11.904 14.5262 12.792 14.1182C15.36 12.9902 17.4 12.6782 18.24 12.6062C18.384 12.5822 18.504 12.5582 18.648 12.5582C20.112 12.3662 21.768 12.3182 23.496 12.5102C25.776 12.7742 28.224 13.4462 30.72 14.8142C30.72 14.8142 28.824 13.0142 24.744 11.7662L25.08 11.3822C25.08 11.3822 28.368 11.3102 31.824 13.9022C31.824 13.9022 35.28 20.1662 35.28 27.8942C35.28 27.8942 33.24 31.3742 27.936 31.5422Z" fill="#7289DA"/>
</svg>
