<svg width="96" height="40" viewBox="0 0 96 40" fill="none" xmlns="http://www.w3.org/2000/svg">
<g clip-path="url(#clip0_1_18436)">
<path d="M1.67934 39.5559H11.4916C14.7454 39.5559 16.0673 37.7256 16.6774 33.8617L18.3551 23.3377C18.7619 20.4906 17.1858 19.3213 16.169 18.9145C17.1349 18.6603 18.8127 17.7452 19.2194 14.9998L20.5921 6.6619C21.1514 3.35725 19.4228 1.73035 16.7282 1.73035H7.7294L1.67934 39.5559ZM13.6269 6.50938C14.237 6.50938 14.4404 6.71274 14.2879 7.5262L12.8643 16.3725C12.7626 16.9826 12.4576 17.2876 12 17.2876H11.4408L13.1694 6.50938H13.6269ZM11.2374 21.965C11.8475 21.965 12.1017 22.2192 11.9492 23.0835L10.2206 33.7092C10.0681 34.3701 9.96639 34.6243 9.3563 34.6243H8.69537L10.729 21.965H11.2374ZM27.7567 17.2368C27.9092 16.6267 28.0109 16.5759 28.2651 16.5759C28.5193 16.5759 28.7735 16.6775 28.621 17.2876L27.4517 24.6087H32.8408L34.3152 15.4065C34.6711 13.4237 34.0101 12.051 32.129 12.051H31.7731C29.9937 12.051 28.7227 13.7288 28.1634 14.5931L28.5702 12.2036H22.4693L18.0969 39.5559H24.2487L27.7567 17.2368ZM40.3557 27.2016C40.4574 26.4898 40.8641 25.9306 41.6267 25.5747L40.1523 34.8277C39.9998 35.4378 39.7964 35.5395 39.5931 35.5395C39.1355 35.5395 39.0847 35.1836 39.1355 34.8277L40.3557 27.2016ZM33.238 35.7428C32.8821 37.9798 33.7972 39.8101 35.8817 39.8101H35.9834C37.8136 39.8101 39.1864 38.4883 39.7964 37.3189C39.5931 38.6916 39.9998 39.5559 40.9658 39.5559H46.0499L46.8633 34.5735H46.3549C46.1007 34.5735 46.0499 34.421 46.1007 34.1159L48.8969 16.6267C49.3545 13.7288 47.8801 11.7968 43.1519 11.7968H42.491C38.017 11.7968 36.8985 13.983 36.4918 16.5759L35.6783 21.6599H41.1183L41.9318 16.5759C42.0843 15.9658 42.186 15.8133 42.5418 15.8133H42.5927C42.9994 15.8133 43.1519 16.1183 43.0503 16.7284L42.3385 21.1515C42.2876 21.4057 42.1351 21.6091 41.8301 21.7616C41.2708 22.0667 38.8305 22.7784 37.6103 23.3377C35.5767 24.202 34.9157 25.3713 34.509 27.8117L33.238 35.7428ZM57.1177 39.5559L57.982 34.3701H56.8126C56.2534 34.3701 56.2025 34.1159 56.3551 33.5059L58.9479 17.2876H60.7274L61.5408 12.2036H59.7614L61.1849 3.45893H55.084L53.6605 12.2036H51.7794L50.9659 17.2876H52.847L49.7457 36.7088C49.3899 38.5899 50.3558 39.5559 51.7285 39.5559H57.1177ZM63.8362 12.2036L63.0227 17.0843H67.0392L60.0231 35.0819L59.3114 39.5559H69.8354L70.6489 34.3701H66.5308L73.3434 16.6267L74.0552 12.2036H63.8362ZM83.6502 5.59425H77.5493L76.5833 11.4918H82.6842L83.6502 5.59425ZM82.5826 12.2036H76.4817L72.1094 39.5559H78.2102L82.5826 12.2036ZM90.2452 16.6775C90.3977 16.0675 90.3469 15.6607 90.9061 15.6607C91.4654 15.6607 91.5162 16.0675 91.3637 16.6775L90.3977 22.7276H89.2792L90.2452 16.6775ZM95.431 27.6592H89.6351L88.5166 34.6752C88.4149 35.3361 88.1607 35.6412 87.8049 35.6412C87.449 35.6412 87.1948 35.4886 87.3473 34.8277L88.72 26.2865H95.6343L97.007 17.7452C97.668 13.5763 95.1768 11.7968 91.7196 11.7968H90.4994C86.4322 11.7968 84.7036 13.8813 84.0935 17.7452L81.5006 33.8617C80.8905 37.8782 82.9241 39.9626 86.9406 39.9626H88.1607C92.1772 39.9626 93.8041 37.6748 94.4142 34.0143L95.431 27.6592Z" fill="#F86ED6" fill-opacity="0.74"/>
<path d="M-1.53325 38.0441H8.27903C11.5328 38.0441 12.8547 36.2138 13.4648 32.3499L15.1425 21.8258C15.5493 18.9788 13.9732 17.8094 12.9564 17.4027C13.9224 17.1485 15.6001 16.2334 16.0068 13.488L17.3795 5.15006C17.9388 1.84541 16.2102 0.218505 13.5156 0.218505H4.51681L-1.53325 38.0441ZM10.4143 4.99754C11.0244 4.99754 11.2278 5.2009 11.0753 6.01436L9.65173 14.8607C9.55005 15.4707 9.24501 15.7758 8.78744 15.7758H8.22819L9.95678 4.99754H10.4143ZM8.02483 20.4531C8.63492 20.4531 8.88912 20.7074 8.7366 21.5716L7.00801 32.1974C6.85549 32.8583 6.75381 33.1125 6.14372 33.1125H5.48279L7.51642 20.4531H8.02483ZM24.5441 15.725C24.6966 15.1149 24.7983 15.064 25.0525 15.064C25.3067 15.064 25.5609 15.1657 25.4084 15.7758L24.2391 23.0969H29.6282L31.1026 13.8947C31.4585 11.9119 30.7975 10.5392 28.9164 10.5392H28.5605C26.7811 10.5392 25.5101 12.2169 24.9508 13.0812L25.3576 10.6917H19.2567L14.8844 38.0441H21.0361L24.5441 15.725ZM37.1431 25.6898C37.2448 24.978 37.6515 24.4187 38.4141 24.0628L36.9397 33.3159C36.7872 33.926 36.5839 34.0276 36.3805 34.0276C35.9229 34.0276 35.8721 33.6718 35.9229 33.3159L37.1431 25.6898ZM30.0254 34.231C29.6695 36.468 30.5846 38.2983 32.6691 38.2983H32.7708C34.6011 38.2983 35.9738 36.9764 36.5839 35.8071C36.3805 37.1798 36.7872 38.0441 37.7532 38.0441H42.8373L43.6507 33.0617H43.1423C42.8881 33.0617 42.8373 32.9091 42.8881 32.6041L45.6844 15.1149C46.1419 12.2169 44.6675 10.285 39.9393 10.285H39.2784C34.8044 10.285 33.6859 12.4711 33.2792 15.064L32.4658 20.1481H37.9057L38.7192 15.064C38.8717 14.4539 38.9734 14.3014 39.3293 14.3014H39.3801C39.7868 14.3014 39.9393 14.6065 39.8377 15.2165L39.1259 19.6397C39.0751 19.8939 38.9225 20.0973 38.6175 20.2498C38.0582 20.5548 35.6179 21.2666 34.3977 21.8258C32.3641 22.6901 31.7031 23.8595 31.2964 26.2998L30.0254 34.231ZM53.9051 38.0441L54.7694 32.8583H53.6C53.0408 32.8583 52.9899 32.6041 53.1425 31.994L55.7353 15.7758H57.5148L58.3282 10.6917H56.5488L57.9723 1.94709H51.8714L50.4479 10.6917H48.5668L47.7533 15.7758H49.6345L46.5332 35.197C46.1773 37.0781 47.1433 38.0441 48.516 38.0441H53.9051ZM60.6236 10.6917L59.8102 15.5724H63.8266L56.8106 33.5701L56.0988 38.0441H66.6228L67.4363 32.8583H63.3182L70.1308 15.1149L70.8426 10.6917H60.6236ZM80.4376 4.0824H74.3367L73.3708 9.97994H79.4717L80.4376 4.0824ZM79.37 10.6917H73.2691L68.8968 38.0441H74.9977L79.37 10.6917ZM87.0326 15.1657C87.1852 14.5556 87.1343 14.1489 87.6936 14.1489C88.2528 14.1489 88.3037 14.5556 88.1511 15.1657L87.1852 21.2158H86.0667L87.0326 15.1657ZM92.2184 26.1473H86.4225L85.304 33.1633C85.2024 33.8243 84.9482 34.1293 84.5923 34.1293C84.2364 34.1293 83.9822 33.9768 84.1347 33.3159L85.5074 24.7746H92.4218L93.7945 16.2334C94.4554 12.0644 91.9642 10.285 88.507 10.285H87.2868C83.2196 10.285 81.491 12.3695 80.8809 16.2334L78.288 32.3499C77.6779 36.3663 79.7116 38.4508 83.728 38.4508H84.9482C88.9646 38.4508 90.5915 36.163 91.2016 32.5024L92.2184 26.1473Z" fill="#FFF500"/>
</g>
<defs>
<clipPath id="clip0_1_18436">
<rect width="96" height="40" fill="white"/>
</clipPath>
</defs>
</svg>
