<svg width="36" height="34" viewBox="0 0 36 34" fill="none" xmlns="http://www.w3.org/2000/svg">
<path d="M34.6823 0.3125L19.4473 11.5853L22.2803 4.94189L34.6823 0.3125Z" fill="#E17726"/>
<path d="M0.858766 0.325714L13.2273 4.94259L15.9175 11.6732L0.858766 0.325714ZM28.5513 24.2865L35.2847 24.4148L32.9314 32.4092L24.7149 30.147L28.5513 24.2865ZM6.95387 24.2865L10.776 30.147L2.57306 32.4095L0.234375 24.4148L6.95387 24.2865Z" fill="#E27625"/>
<path d="M15.552 9.9589L15.8274 18.8467L7.59277 18.472L9.93493 14.9384L9.96483 14.9043L15.552 9.9589ZM19.8685 9.85947L25.5409 14.9047L25.5704 14.9387L27.9126 18.472L19.6801 18.8467L19.8685 9.85947ZM11.0172 24.3122L15.5134 27.8156L10.2906 30.3371L11.0172 24.3122ZM24.4892 24.3119L25.2009 30.3371L19.9926 27.8152L24.4892 24.3119Z" fill="#E27625"/>
<path d="M20.1077 27.4853L25.3927 30.0444L20.4765 32.381L20.5276 30.8367L20.1077 27.4853ZM15.3966 27.4864L14.9933 30.8113L15.0263 32.3793L10.0986 30.0444L15.3966 27.4864Z" fill="#D5BFB2"/>
<path d="M13.8706 20.0065L15.2519 22.9091L10.5498 21.5317L13.8706 20.0065ZM21.6352 20.0069L24.972 21.5317L20.2546 22.9088L21.6352 20.0069Z" fill="#233447"/>
<path d="M11.3768 24.2827L10.6168 30.5294L6.54297 24.4193L11.3768 24.2827ZM24.1295 24.2827L28.9637 24.4193L24.8745 30.5297L24.1295 24.2827ZM28.0319 18.1187L24.5137 21.7041L21.8016 20.4647L20.5028 23.1945L19.6517 18.5001L28.0319 18.1187ZM7.4726 18.1187L15.8542 18.5001L15.0028 23.1945L13.704 20.4651L11.0058 21.7041L7.4726 18.1187Z" fill="#CC6228"/>
<path d="M7.23535 17.3831L11.2153 21.4218L11.3533 25.4091L7.23535 17.3831ZM28.2745 17.3758L24.1492 25.4161L24.3042 21.4218L28.2745 17.3758ZM15.6594 17.6289L15.8197 18.6375L16.2157 21.1493L15.9612 28.8638L14.7579 22.6665L14.7576 22.6025L15.6594 17.6289ZM19.8441 17.615L20.7484 22.6025L20.7481 22.6665L19.542 28.8794L19.4941 27.3254L19.306 21.1034L19.8441 17.615Z" fill="#E27525"/>
<path d="M24.6583 21.2612L24.5238 24.7256L20.3248 27.9971L19.4762 27.3974L20.4274 22.4965L24.6583 21.2612ZM10.8623 21.2616L15.0787 22.4968L16.0299 27.3974L15.1812 27.9971L10.9822 24.7253L10.8623 21.2616Z" fill="#F5841F"/>
<path d="M9.29492 29.2796L14.6666 31.8248L14.644 30.7376L15.0935 30.3434H20.4102L20.8757 30.7366L20.8413 31.8227L26.1792 29.2858L23.5819 31.4323L20.4411 33.5895H15.0504L11.9117 31.4232L9.29492 29.2796Z" fill="#C0AC9D"/>
<path d="M19.7222 27.1467L20.4818 27.6831L20.9268 31.2341L20.2826 30.6904H15.2238L14.5918 31.2452L15.0225 27.6835L15.7822 27.1467H19.7222Z" fill="#161616"/>
<path d="M33.6764 0.624689L35.5051 6.1107L34.363 11.6579L35.1762 12.2854L34.0759 13.125L34.9029 13.7637L33.8078 14.7611L34.4802 15.2482L32.6957 17.332L25.3768 15.2012L25.3135 15.1672L20.0396 10.7182L33.6764 0.624689ZM1.82867 0.624689L15.4658 10.7182L10.1915 15.1672L10.1283 15.2012L2.80941 17.332L1.02524 15.2482L1.69691 14.7614L0.602141 13.7637L1.42782 13.1257L0.310805 12.2837L1.15491 11.6558L0 6.11105L1.82867 0.624689Z" fill="#763E1A"/>
<path d="M25.0183 14.735L32.7732 16.993L35.2926 24.7576H28.6461L24.0661 24.8153L27.3967 18.3235L25.0183 14.735ZM10.486 14.735L8.10695 18.3235L11.4382 24.8153L6.86061 24.7576H0.225586L2.73114 16.993L10.486 14.735ZM22.6598 4.90466L20.4905 10.763L20.0302 18.6767L19.8543 21.1572L19.8404 27.494H15.664L15.6504 21.1691L15.4738 18.6746L15.0131 10.763L12.8445 4.90466H22.6598Z" fill="#F5841F"/>
</svg>
